# xmcd CD database file
#
# Track frame offsets:
#	150
#	7225
#	17170
#	35262
#	43352
#	51208
#	59320
#	68520
#	93275
#	103603
#	111112
#	120808
#	137656
#	155763
#	182362
#	198336
#	213791
#	219790
#	229962
#	242091
#	255171
#	264985
#	284927
#
# Disc length: 3995 seconds
#
# Revision: 0
# Processed by: cddbd v1.5.1PL0 Copyright (c) Steve Scherf et al.
# Submitted via: CDex 1.51
#
DISCID=3e0f9917
DTITLE=Galt MacDermot - In Film 1969-1973
DYEAR=2004
DGENRE=Jazz
TTITLE0=Fragments II (From Woman is Sweeter)
TTITLE1=Cathedral (From Woman is Sweeter)
TTITLE2=Tango (From Woman is Sweeter)
TTITLE3=American Express (From American Express)
TTITLE4=Never Die, Never Desire  (From American Express)
TTITLE5=Cambodia  (From American Express)
TTITLE6=Dead End (From Hair)
TTITLE7=Ed and Digger (From Cotton Comes To Harlem)
TTITLE8=Stockyard  (From Cotton Comes To Harlem)
TTITLE9=Harlem Medely pt1 (From Cotton Comes To Harlem)
TTITLE10=Coffin Ed  (From Cotton Comes To Harlem)
TTITLE11=Golden Apples pt2 (From Nucleus)
TTITLE12=Bedroom  (From Nucleus)
TTITLE13=Fishing  (From Nucleus)
TTITLE14=Golden Apples pt1 (From Nucleus)
TTITLE15=Duffer (From Nucleus)
TTITLE16=Mona's Theme (From Fortune and Men's Eyes)
TTITLE17=Queenie's Theme (From Fortune and Men's Eyes)
TTITLE18=Meard Street (From Moon Over The Alley)
TTITLE19=Rhinoceros Theme (Version A) (From Rhinoceros)
TTITLE20=Rhinoceros Main Theme (From Rhinoceros)
TTITLE21=Rhinoceros Theme (Version B) (From Rhinoceros)
TTITLE22=Fortune and Men's Eyes (Vocal Version)
EXTD=YEAR: 2004
EXTT0=
EXTT1=
EXTT2=
EXTT3=
EXTT4=
EXTT5=
EXTT6=
EXTT7=
EXTT8=
EXTT9=
EXTT10=
EXTT11=
EXTT12=
EXTT13=
EXTT14=
EXTT15=
EXTT16=
EXTT17=
EXTT18=
EXTT19=
EXTT20=
EXTT21=
EXTT22=
PLAYORDER=
